<svg width="24" height="24" viewBox="0 0 24 24" fill="none" xmlns="http://www.w3.org/2000/svg">
<path d="M18.1575 7.38163L18.303 7.3953C18.6321 7.46005 18.8862 7.74082 18.9065 8.08768L19.6819 21.3513C19.6938 21.5573 19.6203 21.7588 19.4788 21.909C19.3371 22.0592 19.1394 22.1443 18.9329 22.1443H5.06667C4.86016 22.1443 4.66248 22.0592 4.52078 21.909C4.37939 21.7589 4.30573 21.5572 4.31765 21.3513L5.09402 8.08768L5.11648 7.94315C5.20041 7.61861 5.49487 7.38183 5.84206 7.38163H18.1575ZM5.86257 20.6443H18.1379L17.4495 8.88163H6.55007L5.86257 20.6443ZM13.9163 5.36796C13.916 4.23109 13.0336 3.35541 12.0003 3.35527C10.9668 3.35527 10.0835 4.231 10.0833 5.36796C10.0833 5.78217 9.74748 6.11796 9.33327 6.11796C8.91909 6.11792 8.58327 5.78215 8.58327 5.36796C8.58351 3.45325 10.0885 1.85527 12.0003 1.85527C13.9119 1.85541 15.416 3.45334 15.4163 5.36796C15.4163 5.78217 15.0805 6.11796 14.6663 6.11796C14.2522 6.11775 13.9163 5.78204 13.9163 5.36796Z" fill="#1E1B1C"/>
</svg>
