<svg width="95" height="32" viewBox="0 0 95 32" fill="none" xmlns="http://www.w3.org/2000/svg">
<rect x="0.5" y="0.5" width="94" height="31" fill="white"/>
<rect x="0.5" y="0.5" width="94" height="31" stroke="#E1E1D9"/>
<path d="M12.798 12.2H13.89L15.038 18.5C15.15 19.144 15.318 20.208 15.402 20.684C15.486 20.208 15.71 19.158 15.864 18.528L17.418 12.2H18.594L20.148 18.528C20.302 19.158 20.526 20.208 20.61 20.684C20.694 20.208 20.862 19.144 20.974 18.5L22.122 12.2H23.186L21.226 22H19.994L18.454 15.728C18.3 15.084 18.09 14.118 17.978 13.516C17.866 14.118 17.67 15.056 17.502 15.728L15.962 22H14.758L12.798 12.2ZM24.103 19.802C24.103 18.15 25.461 17.45 26.917 17.45C27.659 17.45 28.317 17.632 28.751 17.87V17.002C28.751 15.91 28.233 15.378 27.155 15.378C26.385 15.378 25.755 15.588 25.153 15.938L24.761 15.084C25.405 14.734 26.273 14.496 27.225 14.496C28.807 14.496 29.801 15.168 29.801 16.876V22H28.751V21.104C28.233 21.664 27.505 22.154 26.455 22.154C25.307 22.154 24.103 21.58 24.103 19.802ZM28.751 20.194V18.71C28.275 18.444 27.757 18.29 26.861 18.29C25.783 18.29 25.139 18.808 25.139 19.732C25.139 20.824 25.741 21.3 26.637 21.3C27.589 21.3 28.303 20.81 28.751 20.194ZM32.3779 20.488V15.532H31.4679V14.65H32.3779V12.382L33.4279 11.794V14.65H35.2479V15.532H33.4279V20.32C33.4279 20.978 33.6099 21.202 34.1699 21.202C34.5899 21.202 34.8699 21.132 35.2059 20.992L35.1359 21.902C34.7299 22.07 34.3379 22.154 33.7779 22.154C32.8679 22.154 32.3779 21.706 32.3779 20.488ZM36.6274 18.29C36.6274 15.952 37.9154 14.496 39.6654 14.496C41.5834 14.496 42.6194 16.008 42.6194 18.108C42.6194 18.36 42.6054 18.514 42.5774 18.682H37.6774C37.7754 20.25 38.5174 21.244 39.7214 21.244C40.5754 21.244 41.0794 20.992 41.7514 20.544L42.2414 21.3C41.3594 21.86 40.7154 22.154 39.6094 22.154C38.2654 22.154 36.6274 21.174 36.6274 18.29ZM41.6394 17.828C41.5554 16.4 40.9394 15.406 39.6514 15.406C38.5594 15.406 37.8034 16.19 37.6774 17.828H41.6394ZM44.58 14.65H45.63V15.56C45.966 14.972 46.666 14.496 47.45 14.496C47.996 14.496 48.346 14.566 48.598 14.678L48.332 15.742C48.038 15.574 47.716 15.462 47.226 15.462C46.204 15.462 45.63 16.288 45.63 17.688V22H44.58V14.65ZM50.2811 14.65H51.3311V15.546C51.8491 14.986 52.5491 14.496 53.5431 14.496C55.0131 14.496 56.1751 15.616 56.1751 18.206C56.1751 20.81 54.9431 22.154 53.4031 22.154C52.4791 22.154 51.8491 21.762 51.3311 21.174V24.114L50.2811 24.702V14.65ZM55.1391 18.22C55.1391 16.372 54.4391 15.406 53.2771 15.406C52.4931 15.406 51.8491 15.826 51.3311 16.47V20.138C51.7371 20.754 52.4511 21.244 53.3191 21.244C54.5371 21.244 55.1391 20.194 55.1391 18.22ZM58.1015 14.65H59.1515V15.56C59.4875 14.972 60.1875 14.496 60.9715 14.496C61.5175 14.496 61.8675 14.566 62.1195 14.678L61.8535 15.742C61.5595 15.574 61.2375 15.462 60.7475 15.462C59.7255 15.462 59.1515 16.288 59.1515 17.688V22H58.1015V14.65ZM63.0552 18.332C63.0552 15.84 64.4832 14.496 66.2752 14.496C68.0672 14.496 69.4392 15.784 69.4392 18.276C69.4392 20.768 68.0112 22.154 66.2192 22.154C64.4272 22.154 63.0552 20.824 63.0552 18.332ZM68.3892 18.304C68.3892 16.372 67.5212 15.406 66.2472 15.406C64.9732 15.406 64.1192 16.372 64.1192 18.304C64.1192 20.236 64.9732 21.244 66.2472 21.244C67.5212 21.244 68.3892 20.236 68.3892 18.304ZM70.9848 18.332C70.9848 15.84 72.4128 14.496 74.2048 14.496C75.9968 14.496 77.3688 15.784 77.3688 18.276C77.3688 20.768 75.9408 22.154 74.1488 22.154C72.3568 22.154 70.9848 20.824 70.9848 18.332ZM76.3188 18.304C76.3188 16.372 75.4508 15.406 74.1768 15.406C72.9028 15.406 72.0488 16.372 72.0488 18.304C72.0488 20.236 72.9028 21.244 74.1768 21.244C75.4508 21.244 76.3188 20.236 76.3188 18.304ZM79.6055 15.532H78.5975V14.65H79.6055V13.642C79.6055 12.326 80.3195 11.836 81.3415 11.836C81.7615 11.836 82.0135 11.878 82.2655 11.962V12.956C82.0275 12.844 81.7475 12.788 81.4115 12.788C80.9775 12.788 80.6555 12.942 80.6555 13.558V14.65H82.0975V15.532H80.6555V22H79.6055V15.532Z" fill="#1E1B1C"/>
</svg>
