<svg width="91" height="32" viewBox="0 0 91 32" fill="none" xmlns="http://www.w3.org/2000/svg">
<rect x="0.5" y="0.5" width="90" height="31" fill="white"/>
<rect x="0.5" y="0.5" width="90" height="31" stroke="#E1E1D9"/>
<path d="M12.77 20.796L13.498 19.984C14.24 20.698 15.094 21.16 16.102 21.16C17.404 21.16 18.216 20.516 18.216 19.48C18.216 18.57 17.67 18.052 15.878 17.408C13.764 16.652 13.05 15.966 13.05 14.552C13.05 12.984 14.282 12.046 16.116 12.046C17.432 12.046 18.272 12.438 19.098 13.096L18.398 13.95C17.684 13.362 17.026 13.04 16.046 13.04C14.702 13.04 14.142 13.712 14.142 14.482C14.142 15.294 14.506 15.756 16.466 16.456C18.636 17.24 19.308 17.968 19.308 19.424C19.308 20.964 18.104 22.154 16.06 22.154C14.73 22.154 13.54 21.58 12.77 20.796ZM20.9038 19.802C20.9038 18.15 22.2618 17.45 23.7178 17.45C24.4598 17.45 25.1178 17.632 25.5518 17.87V17.002C25.5518 15.91 25.0338 15.378 23.9558 15.378C23.1858 15.378 22.5558 15.588 21.9538 15.938L21.5618 15.084C22.2058 14.734 23.0738 14.496 24.0258 14.496C25.6078 14.496 26.6018 15.168 26.6018 16.876V22H25.5518V21.104C25.0338 21.664 24.3058 22.154 23.2558 22.154C22.1078 22.154 20.9038 21.58 20.9038 19.802ZM25.5518 20.194V18.71C25.0758 18.444 24.5578 18.29 23.6618 18.29C22.5838 18.29 21.9398 18.808 21.9398 19.732C21.9398 20.824 22.5418 21.3 23.4378 21.3C24.3898 21.3 25.1038 20.81 25.5518 20.194ZM29.3887 15.532H28.3807V14.65H29.3887V13.642C29.3887 12.326 30.1027 11.836 31.1247 11.836C31.5447 11.836 31.7967 11.878 32.0487 11.962V12.956C31.8107 12.844 31.5307 12.788 31.1947 12.788C30.7607 12.788 30.4387 12.942 30.4387 13.558V14.65H31.8807V15.532H30.4387V22H29.3887V15.532ZM33.1684 18.29C33.1684 15.952 34.4564 14.496 36.2064 14.496C38.1244 14.496 39.1604 16.008 39.1604 18.108C39.1604 18.36 39.1464 18.514 39.1184 18.682H34.2184C34.3164 20.25 35.0584 21.244 36.2624 21.244C37.1164 21.244 37.6204 20.992 38.2924 20.544L38.7824 21.3C37.9004 21.86 37.2564 22.154 36.1504 22.154C34.8064 22.154 33.1684 21.174 33.1684 18.29ZM38.1804 17.828C38.0964 16.4 37.4804 15.406 36.1924 15.406C35.1004 15.406 34.3444 16.19 34.2184 17.828H38.1804ZM41.3056 20.488V15.532H40.3956V14.65H41.3056V12.382L42.3556 11.794V14.65H44.1756V15.532H42.3556V20.32C42.3556 20.978 42.5376 21.202 43.0976 21.202C43.5176 21.202 43.7976 21.132 44.1336 20.992L44.0636 21.902C43.6576 22.07 43.2656 22.154 42.7056 22.154C41.7956 22.154 41.3056 21.706 41.3056 20.488ZM47.9632 21.916L45.3452 14.65H46.4512L48.2432 19.984L48.4952 20.74L48.7472 19.998L50.5532 14.65H51.6592L48.0052 24.59H46.9552L47.9632 21.916ZM59.4294 13.194H56.5454V12.2H63.4054V13.194H60.5214V22H59.4294V13.194ZM63.438 18.332C63.438 15.84 64.866 14.496 66.658 14.496C68.45 14.496 69.822 15.784 69.822 18.276C69.822 20.768 68.394 22.154 66.602 22.154C64.81 22.154 63.438 20.824 63.438 18.332ZM68.772 18.304C68.772 16.372 67.904 15.406 66.63 15.406C65.356 15.406 64.502 16.372 64.502 18.304C64.502 20.236 65.356 21.244 66.63 21.244C67.904 21.244 68.772 20.236 68.772 18.304ZM71.3677 18.29C71.3677 15.952 72.6557 14.496 74.4057 14.496C76.3237 14.496 77.3597 16.008 77.3597 18.108C77.3597 18.36 77.3457 18.514 77.3177 18.682H72.4177C72.5157 20.25 73.2577 21.244 74.4617 21.244C75.3157 21.244 75.8197 20.992 76.4917 20.544L76.9817 21.3C76.0997 21.86 75.4557 22.154 74.3497 22.154C73.0057 22.154 71.3677 21.174 71.3677 18.29ZM76.3797 17.828C76.2957 16.4 75.6797 15.406 74.3917 15.406C73.2997 15.406 72.5437 16.19 72.4177 17.828H76.3797Z" fill="#1E1B1C"/>
</svg>
